<svg width="6" height="5" viewBox="0 0 6 5" fill="none" xmlns="http://www.w3.org/2000/svg">
<path d="M4.99262 1.11762C4.6933 0.870297 4.25008 0.912485 4.00276 1.21184L2.48341 3.05075L1.88311 2.4377C1.61139 2.16025 1.16624 2.15561 0.888787 2.42729C0.611333 2.69898 0.606693 3.14416 0.878345 3.42162L1.63259 4.19185C1.63835 4.19773 1.64422 4.20353 1.6502 4.20922C1.87812 4.42617 2.18236 4.54686 2.49529 4.54686C2.52218 4.54679 2.54918 4.54591 2.57618 4.54412C2.91523 4.52151 3.23188 4.3574 3.44592 4.09363L5.08684 2.10751C5.3342 1.80812 5.29201 1.36494 4.99262 1.11762Z" fill="white"/>
</svg>
